<svg fill="none" height="24" viewBox="0 0 24 24" width="24" xmlns="http://www.w3.org/2000/svg"><g fill="#292d32"><path d="m20.9808 3.0201c-.87-.87-2.1-1.21-3.29-.91l-9.79996 2.45c-1.65.41-2.92 1.69-3.33 3.33l-2.45 9.81c-.3 1.19.04 2.42.91 3.29.66.65 1.53 1.01 2.43 1.01.28 0 .57-.03.85-.11l9.80996-2.45c1.64-.41 2.92-1.68 3.33-3.33l2.45-9.81c.3-1.19-.04-2.42-.91-3.28z" opacity=".4"/><path d="m11.9991 15.8801c2.1429 0 3.88-1.7371 3.88-3.88 0-2.14285-1.7371-3.87998-3.88-3.87998-2.14282 0-3.87996 1.73713-3.87996 3.87998 0 2.1429 1.73714 3.88 3.87996 3.88z"/></g></svg>