<svg viewBox="0 0 264.58332 264.58332">
    <path id="headphone" d="m 195.81254,52.983305 c -3.36835,-3.31335 -7.01632,-6.387751 -10.93121,-9.188209 C 153.56217,21.391373 111.82462,21.389979 80.505458,43.793698 49.186301,66.197418 34.911643,106.2642 44.807234,143.99296 l 9.331349,-2.55422 c -8.853087,-33.75403 3.888628,-69.517388 31.908304,-89.560868 28.019673,-20.043483 65.274703,-20.043479 93.294373,-2e-6 28.01969,20.043484 40.7614,55.80685 31.90831,89.56088 l 9.32861,2.55421 c 8.65865,-33.01267 -1.1873,-67.816106 -24.76564,-91.009655 z m -5.86198,141.405765 a 37.254353,37.254353 0 0 0 12.41837,4.34082 v -73.60636 a 37.254353,37.254353 0 0 0 -12.41837,4.26071 z m 12.41837,-69.26554 v 73.60636 a 37.254353,37.254353 0 0 0 5.69164,0.46354 37.254353,37.254353 0 0 0 37.25457,-37.25407 37.254353,37.254353 0 0 0 -37.25457,-37.25456 37.254353,37.254353 0 0 0 -5.69164,0.43873 z m 0,76.48474 v -2.87838 a 37.254353,37.254353 0 0 1 -12.41837,-4.34082 v 7.2192 z m -12.41837,-72.22403 a 37.254353,37.254353 0 0 1 12.41837,-4.26071 V 121.2354 H 189.95056 Z M 74.632776,128.4546 A 37.254353,37.254353 0 0 0 62.21441,124.11377 l 10e-7,73.60636 a 37.254353,37.254353 0 0 0 12.418363,-4.26072 z m -12.418365,69.26553 -10e-7,-73.60636 a 37.254353,37.254353 0 0 0 -5.69164,-0.46353 37.254353,37.254353 0 0 0 -37.254575,37.25405 37.254353,37.254353 0 0 0 37.254575,37.25458 37.254353,37.254353 0 0 0 5.691641,-0.43874 z m 3e-6,-76.48473 -4e-6,2.87837 a 37.254353,37.254353 0 0 1 12.418366,4.34083 l 3e-6,-7.2192 z m 12.41836,72.22401 a 37.254353,37.254353 0 0 1 -12.418363,4.26072 l 3e-6,3.88814 h 12.418365 z" />
    <path id="mic" d="m 136.94079,193.69195 a 8.5971498,8.5971498 0 0 1 -10.09699,-2.12317 8.5971498,8.5971498 0 0 1 -0.78708,-10.28774 8.5971498,8.5971498 0 0 1 9.65649,-3.63445 8.5971498,8.5971498 0 0 1 6.19142,8.25369 h -8.59715 z M 132.29166,52.916665 A 39.6875,39.6875 0 0 0 92.604164,92.604168 v 0.45062 h 39.687496 a 3.96875,3.96875 0 0 1 3.96875,3.96875 3.96875,3.96875 0 0 1 -3.96875,3.968752 H 92.604164 v 10.58333 h 39.687496 a 3.96875,3.96875 0 0 1 3.96875,3.96875 3.96875,3.96875 0 0 1 -3.96875,3.96875 H 92.604164 v 10.58334 h 39.687496 a 3.96875,3.96875 0 0 1 3.96875,3.96875 3.96875,3.96875 0 0 1 -3.96875,3.96875 H 92.604164 v 10.58333 h 39.687496 a 3.96875,3.96875 0 0 1 3.96875,3.96875 3.96875,3.96875 0 0 1 -3.96875,3.96875 H 92.604164 v 15.42438 a 39.6875,39.6875 0 0 0 39.687496,39.6875 39.6875,39.6875 0 0 0 1.22319,-0.10697 v -11.45666 a 14.413629,14.413629 0 0 1 -0.34055,0.0269 14.413629,14.413629 0 0 1 -14.41359,-14.41359 14.413629,14.413629 0 0 1 14.41359,-14.41359 14.413629,14.413629 0 0 1 14.41359,14.41359 14.413629,14.413629 0 0 1 -6.8094,12.19305 v 12.72739 A 39.6875,39.6875 0 0 0 171.97917,171.9792 V 92.604198 A 39.6875,39.6875 0 0 0 132.29166,52.916695 Z" />
</svg>