<svg fill="none" height="24" viewBox="0 0 24 24" width="24" xmlns="http://www.w3.org/2000/svg"><g fill="#292d32"><path d="m22 3.75h-20c-.41 0-.75-.34-.75-.75s.34-.75.75-.75h20c.41 0 .75.34.75.75s-.34.75-.75.75z"/><path d="m11 9.75h-9c-.41 0-.75-.34-.75-.75s.34-.75.75-.75h9c.41 0 .75.34.75.75s-.34.75-.75.75z"/><path d="m8 15.75h-6c-.41 0-.75-.34-.75-.75s.34-.75.75-.75h6c.41 0 .75.34.75.75s-.34.75-.75.75z"/><path d="m6 21.75h-4c-.41 0-.75-.34-.75-.75s.34-.75.75-.75h4c.41 0 .75.34.75.75s-.34.75-.75.75z"/><path d="m21.8602 7.67825c-.59-.45-1.4-.53999-2.35-.27999l-4.35 1.17999c-1.17.32-1.89 1.27001-1.89 2.47005v2.55 3.68c-.42-.24-.91-.39-1.43-.39-1.61 0-2.93004 1.31-2.93004 2.93 0 1.61 1.31004 2.93 2.93004 2.93s2.93-1.31 2.93-2.93v-5.65l6.48-1.77v3.43c-.42-.24-.91-.39-1.43-.39-1.61 0-2.93 1.31-2.93 2.93 0 1.61 1.31 2.93 2.93 2.93s2.93-1.31 2.93-2.93v-6.95-1.55005c0-1.01-.3-1.75-.89-2.19zm-10.02 13.57005c-.79 0-1.43-.64-1.43-1.43s.64-1.43 1.43-1.43 1.43.64 1.43 1.43-.64 1.43-1.43 1.43zm7.98-1.45c-.79 0-1.43-.64-1.43-1.43s.64-1.43 1.43-1.43 1.43.64 1.43 1.43-.64 1.43-1.43 1.43z"/></g></svg>