<svg fill="none" height="24" viewBox="0 0 24 24" width="24" xmlns="http://www.w3.org/2000/svg"><g fill="#292d32"><path d="m22.5295 13.4202-1.45-1.45 1.4-1.4c.29-.29.29-.77002 0-1.06002s-.77-.29-1.06 0l-1.4 1.40002-1.45-1.45002c-.29-.29-.77-.29-1.06 0s-.29.77002 0 1.06002l1.45 1.45-1.49 1.49c-.29.29-.29.77 0 1.06.15.15.34.22.53.22s.38-.07.53-.22l1.49-1.49 1.45 1.45c.15.15.34.22.53.22s.38-.07.53-.22c.29-.29.29-.76 0-1.06z"/><path d="m15.75 7.41021v9.17999c0 1.72-.62 3.01-1.73 3.63-.45.25-.95.37-1.47.37-.8 0-1.66-.27-2.54-.82l-2.92-1.83c-.2-.12-.43-.19-.66-.19h-.93v-11.49999h.93c.23 0 .46-.07.66-.19l2.92-1.83c1.46-.91 2.89-1.07 4.01-.45 1.11.62 1.73 1.91 1.73 3.63z" opacity=".4"/><path d="m5.5 6.25v11.5h-.5c-2.42 0-3.75-1.33-3.75-3.75v-4c0-2.42 1.33-3.75 3.75-3.75z"/></g></svg>