<svg fill="none" height="24" viewBox="0 0 24 24" width="24" xmlns="http://www.w3.org/2000/svg"><g fill="#292d32"><path d="m18.0003 16.7498c-.16 0-.31-.05-.45-.15-.33-.25-.4-.72-.15-1.05 1.57-2.09 1.57-5.01 0-7.10002-.25-.33-.18-.8.15-1.05s.8-.18 1.05.15c1.96 2.62002 1.96 6.28002 0 8.90002-.15.2-.37.3-.6.3z"/><path d="m19.8304 19.2498c-.16 0-.31-.05-.45-.15-.33-.25-.4-.72-.15-1.05 2.67-3.56 2.67-8.54002 0-12.10002-.25-.33-.18-.8.15-1.05s.8-.18 1.05.15c3.07 4.09 3.07 9.81002 0 13.90002-.14.2-.37.3-.6.3z"/><path d="m15.75 7.41021v9.17999c0 1.72-.62 3.01-1.73 3.63-.45.25-.95.37-1.47.37-.8 0-1.66-.27-2.54-.82l-2.92-1.83c-.2-.12-.43-.19-.66-.19h-.93v-11.49999h.93c.23 0 .46-.07.66-.19l2.92-1.83c1.46-.91 2.89-1.07 4.01-.45 1.11.62 1.73 1.91 1.73 3.63z" opacity=".4"/><path d="m5.5 6.25v11.5h-.5c-2.42 0-3.75-1.33-3.75-3.75v-4c0-2.42 1.33-3.75 3.75-3.75z"/></g></svg>