<svg fill="none" height="24" viewBox="0 0 24 24" width="24" xmlns="http://www.w3.org/2000/svg"><g fill="#292d32"><path d="m16.19 2h-8.38c-3.64 0-5.81 2.17-5.81 5.81v8.37c0 3.65 2.17 5.82 5.81 5.82h8.37c3.64 0 5.81-2.17 5.81-5.81v-8.38c.01-3.64-2.16-5.81-5.8-5.81z" opacity=".4"/><path d="m13.0594 12.0001 2.3-2.29999c.29-.29.29-.77 0-1.06s-.77-.29-1.06 0l-2.3 2.29999-2.30003-2.29999c-.29-.29-.77-.29-1.05999 0-.29.29-.29.77 0 1.06l2.30002 2.29999-2.30002 2.3c-.29.29-.29.77 0 1.06.15.15.33999.22.52999.22s.38-.07.53-.22l2.30003-2.3 2.3 2.3c.15.15.34.22.53.22s.38-.07.53-.22c.29-.29.29-.77 0-1.06z"/></g></svg>