<svg fill="none" height="24" viewBox="0 0 24 24" width="24" xmlns="http://www.w3.org/2000/svg"><g fill="#1c274c"><path clip-rule="evenodd" d="m14.7898 18.9746c-6.29231 2.5169-9.43848 3.7754-11.23552 2.5542-.42608-.2895-.79357-.657-1.08311-1.0831-1.22116-1.797.03731-4.9432 2.55425-11.23553.53686-1.34215.80528-2.01322 1.26696-2.53969.11764-.13415.24395-.26046.3781-.3781.52647-.46168 1.19754-.7301 2.53969-1.26696 6.29233-2.51694 9.43853-3.77541 11.23553-2.55425.4261.28953.7936.65703 1.0831 1.08311 1.2212 1.79704-.0373 4.94321-2.5542 11.23552-.5369 1.3422-.8053 2.0133-1.267 2.5397-.1176.1342-.2439.2605-.3781.3781-.5264.4617-1.1975.7301-2.5397 1.267z" fill-rule="evenodd" opacity=".5"/><path d="m12 8.25c-2.07107 0-3.75 1.67893-3.75 3.75 0 2.0711 1.67893 3.75 3.75 3.75 2.0711 0 3.75-1.6789 3.75-3.75 0-2.07107-1.6789-3.75-3.75-3.75z"/></g></svg>