<svg fill="none" height="24" viewBox="0 0 24 24" width="24" xmlns="http://www.w3.org/2000/svg"><g fill="#292d32"><path d="m22.0009 8.69008c0 1.19-.1901 2.29002-.5201 3.31002-1.58 5-6.4499 7.99-8.8599 8.81-.34.12-.9.12-1.24 0-.64-.22-1.45005-.59-2.32005-1.11-.56-.33-.65-1.11-.19-1.57l11.28005-11.28002c.54-.54 1.49-.31001 1.68.42999.11.45.17.92001.17 1.41001z" opacity=".4"/><path d="m22.5295 1.46994c-.29-.29-.77-.29-1.06 0l-2.34 2.34c-.79-.45-1.71-.70999-2.69-.70999-1.81 0-3.43.87998-4.44 2.22998-1.01-1.35-2.63002-2.22998-4.44002-2.22998-3.07 0-5.56 2.49999-5.56 5.58999 0 1.19.19002 2.28996.52002 3.30996.65 2.07 1.87 3.8001 3.25 5.1701l-4.30005 4.2999c-.29.29-.29.77 0 1.06.15.15.34003.22.53003.22s.38003-.07.53003-.22l19.99999-19.99996c.29-.29.29-.77 0-1.06z"/></g></svg>