<svg fill="none" height="24" viewBox="0 0 24 24" width="24" xmlns="http://www.w3.org/2000/svg"><g fill="#292d32"><path d="m9.00068 19.0001c0 .84.13 1.66.37 2.42-3.84-1.33-6.74-4.86-7.04-8.99-.3-4.38998 2.23-8.48998 6.32-10.20998 1.06-.44 1.60002-.12 1.83002.11.22.22.53.75.09 1.76-.45 1.04-.67002 2.14-.67002 3.28.01 2.04.81002 3.92998 2.11002 5.37998-1.83 1.46-3.01002 3.72-3.01002 6.25z"/><path d="m21.21 17.72c-1.98 2.69-5.12 4.27-8.47 4.27-.16 0-.32-.01-.48-.02-1-.04-1.97-.23-2.89-.55-.24-.76-.37-1.58-.37-2.42 0-2.53 1.18-4.79 3.01-6.25 1.47 1.65 3.58 2.72 5.91 2.82.63.03 1.26-.02 1.88-.13 1.12-.2 1.57.22 1.73.49.17.27.35.86-.32 1.79z" opacity=".4"/></g></svg>