<svg fill="none" height="24" viewBox="0 0 24 24" width="24" xmlns="http://www.w3.org/2000/svg"><g fill="#292d32"><path d="m10.2894 10.3398v8.07c0 1.98-1.62003 3.59-3.59003 3.59-1.98 0-3.58999-1.61-3.58999-3.59 0-1.97 1.60999-3.58 3.58999-3.58.83001 0 1.58001.29 2.19001.76v-4.85z"/><path d="m20.8909 7.31982v9.15998c0 1.98-1.61 3.59-3.59 3.59-1.97 0-3.59-1.61-3.59-3.59 0-1.97 1.62-3.58 3.59-3.58.84 0 1.59.29 2.2.77v-5.94998z"/><path d="m20.8906 5.18007v2.14l-11.99998 3.42003v-3.99003c0-1.47.89-2.61 2.29998-2.99l5.78-1.58c1.17-.32 2.16-.21 2.86.33.71.53 1.06 1.43 1.06 2.67z" opacity=".4"/></g></svg>