<svg fill="none" height="24" viewBox="0 0 24 24" width="24" xmlns="http://www.w3.org/2000/svg"><g fill="#292d32"><path d="m18.9401 5.41994-5.17-2.99c-.99-.57-2.54-.57-3.53 0l-5.22002 3.01c-2.07 1.4-2.19 1.61-2.19 3.84v5.42996c0 2.23.12 2.45 2.23 3.87l5.17002 2.99c.5.29 1.14.43 1.77.43s1.27-.14 1.76-.43l5.22-3.01c2.07-1.4 2.19-1.61 2.19-3.84v-5.43996c0-2.23-.12-2.44-2.23-3.86z" opacity=".4"/><path d="m12 15.25c1.7949 0 3.25-1.4551 3.25-3.25s-1.4551-3.25-3.25-3.25-3.25 1.4551-3.25 3.25 1.4551 3.25 3.25 3.25z"/></g></svg>