<svg fill="none" height="24" viewBox="0 0 24 24" width="24" xmlns="http://www.w3.org/2000/svg"><g fill="#292d32"><path d="m21.0801 8.58003v6.83997c0 1.12-.5999 2.16-1.5699 2.73l-5.94 3.43c-.97.56-2.17.56-3.15 0l-5.94004-3.43c-.97-.56-1.57-1.6-1.57-2.73v-6.83997c0-1.12.6-2.16004 1.57-2.73004l5.94004-3.42999c.97-.56 2.17-.56 3.15 0l5.94 3.42999c.97.57 1.5699 1.60004 1.5699 2.73004z" opacity=".4"/><path d="m9.75 11.9999v-1.2c0-1.54001 1.09-2.16997 2.42-1.39997l1.04.59997 1.04.6c1.33.77 1.33 2.03 0 2.8l-1.04.6-1.04.6c-1.33.77-2.42.14-2.42-1.4z"/></g></svg>